<svg id="Layer_1" xmlns="http://www.w3.org/2000/svg" viewBox="0 0 220.3 50" width="220" height="50"><style>.st0{fill:#010101;} .st1{fill:url(#SVGID_1_);} .st2{fill:url(#SVGID_2_);} .st3{fill:url(#SVGID_3_);} .st4{fill:url(#SVGID_4_);} .st5{fill:url(#SVGID_5_);} .st6{fill:url(#SVGID_6_);} .st7{fill:url(#SVGID_7_);} .st8{fill:url(#SVGID_8_);} .st9{fill:url(#SVGID_9_);} .st10{fill:url(#SVGID_10_);} .st11{fill:url(#SVGID_11_);} .st12{fill:url(#SVGID_12_);} .st13{fill:#4B4D48;} .st14{fill:#F37227;} .st15{fill:#177EAE;} .st16{fill:#7FB942;}</style><path class="st0" d="M76.1 35.5h-1V13.2h.9L81.7 33l5.7-19.8h.9v22.2h-1.1v-18l-5.1 18h-.8l-5.2-18v18.1zM95.9 35.5c-.5 0-1.1-.1-1.6-.2-.6-.2-1.1-.5-1.5-.9-.5-.4-.8-1-1.1-1.8-.3-.8-.4-1.8-.4-3V19.1c0-1.9.4-3.3 1.2-4.4.8-1 2-1.5 3.6-1.5s2.8.5 3.6 1.5c.8 1 1.2 2.4 1.2 4.4v10.5c0 1.2-.1 2.2-.4 3-.3.8-.7 1.4-1.1 1.8-.5.4-1 .7-1.5.9-.9.1-1.5.2-2 .2zm0-21.3c-1.3 0-2.2.4-2.7 1.2-.6.8-1 2-1 3.7v10.5c0 1.7.3 2.9 1 3.7.6.8 1.5 1.2 2.7 1.2 1.2 0 2.1-.4 2.8-1.2.6-.8.9-2 .9-3.7V19.1c0-1.7-.3-2.9-.9-3.7-.7-.8-1.6-1.2-2.8-1.2zM107.3 35.5h-3.8V13.2h3.8c1.8 0 3.1.5 3.9 1.6.8 1 1.2 2.4 1.2 4.4v10.2c0 2-.4 3.5-1.2 4.4-.9 1.1-2.2 1.7-3.9 1.7zm-2.8-1.1h2.8c1.4 0 2.5-.4 3.1-1.2.6-.8 1-2.1 1-3.8V19.2c0-1.7-.3-3-1-3.8-.6-.8-1.7-1.2-3.1-1.2h-2.8v20.2zM116.3 14.2v9.6h7v1h-7v9.6h7v1h-8V13.2h8v1h-7zM133.6 25.3c1 .9 1.5 2.3 1.5 3.9v6.2H134v-6.2c0-1.3-.4-2.4-1.1-3.1-.7-.7-1.7-1.1-3.1-1.1h-3v10.4h-1V13.2h4c1.8 0 3.1.5 3.9 1.4.8 1 1.2 2.4 1.2 4.5 0 2-.4 3.5-1.2 4.4-.4.4-.8.8-1.3 1 .5.2.9.5 1.2.8zm-3.7-1.3c1.5 0 2.5-.4 3.1-1.1.7-.8 1-2 1-3.8 0-1.7-.3-3-1-3.7-.6-.7-1.7-1.1-3.2-1.1h-3V24h3.1zM138.9 35.5h-1.1V13.2h.9l7.7 19v-19h1.1v22.2h-.9l-7.7-19v19.1zM161.9 35.4c-1.6 0-2.8-.5-3.6-1.5-.8-.9-1.2-2.4-1.2-4.4V29h1v.5c0 1.1.1 2 .4 2.6.2.6.5 1.1.9 1.5.4.3.8.5 1.2.6.4.1.9.1 1.3.1 1.2 0 2.1-.4 2.8-1.2.6-.8 1-2 1-3.4 0-.8-.1-1.5-.4-2-.3-.5-.6-1-1-1.3-.4-.4-.8-.6-1.2-.8l-1-.5-.6-.2c-.3-.1-.7-.3-1.2-.6s-1-.6-1.4-1.1c-.5-.5-.8-1-1.2-1.7-.3-.7-.5-1.5-.5-2.5 0-1.7.4-3 1.2-4.1.9-1.2 2.1-1.8 3.6-1.8 1.6 0 2.8.5 3.6 1.6.8 1 1.2 2.4 1.2 4.4v.5h-1.1v-.5c0-1.7-.3-2.9-1-3.7-.6-.7-1.5-1.1-2.8-1.1-1.2 0-2.1.5-2.7 1.4-.7.9-1 2.1-1 3.5 0 .8.1 1.5.4 2 .3.6.6 1 1 1.4.4.4.8.7 1.2.9.4.2.8.4 1.1.5l.5.2c.3.1.7.3 1.2.5s1 .6 1.4 1c.5.4.9 1 1.2 1.6.3.7.5 1.5.5 2.4 0 1.7-.4 3-1.2 4-.8 1.2-2 1.7-3.6 1.7zM178.9 14.2h-5.3v21.2h-1V14.2h-5.3v-1.1H179v1.1zM178.7 35.5h-1.1l1.7-7.7v-.1l3.4-14.4h.8l5.1 22.2h-1.1l-1.5-6.8h-5.9l-1.4 6.8zm4.4-19.5l-2.7 11.6h5.4L183.1 16zM199.1 14.2h-5.3v21.2h-1V14.2h-5.3v-1.1h11.7v1.1zM201.8 14.2v9.6h7v1h-7v9.6h7v1h-8V13.2h8v1h-7zM215.6 35.4c-1.6 0-2.8-.5-3.6-1.5-.8-.9-1.2-2.4-1.2-4.4V29h1v.5c0 1.1.1 2 .4 2.6.2.6.5 1.1.9 1.5.4.3.8.5 1.2.6.4.1.9.1 1.3.1 1.2 0 2.1-.4 2.8-1.2.6-.8 1-2 1-3.4 0-.8-.1-1.5-.4-2-.3-.5-.6-1-1-1.3-.4-.4-.8-.6-1.2-.8l-1-.5-.6-.2c-.3-.1-.7-.3-1.2-.6s-1-.6-1.4-1.1c-.5-.5-.8-1-1.2-1.7-.3-.7-.5-1.5-.5-2.5 0-1.7.4-3 1.2-4.1.9-1.2 2.1-1.8 3.6-1.8 1.6 0 2.8.5 3.6 1.6.8 1 1.2 2.4 1.2 4.4v.5h-1.1v-.5c0-1.7-.3-2.9-1-3.7-.6-.7-1.5-1.1-2.8-1.1-1.2 0-2.1.5-2.7 1.4-.7.9-1 2.1-1 3.5 0 .8.1 1.5.4 2 .3.6.6 1 1 1.4.4.4.8.7 1.2.9.4.2.8.4 1.1.5l.5.2c.3.1.7.3 1.2.5s1 .6 1.4 1c.5.4.9 1 1.2 1.6.3.7.5 1.5.5 2.4 0 1.7-.4 3-1.2 4-.9 1.2-2.1 1.7-3.6 1.7z"/><g><linearGradient id="SVGID_1_" gradientUnits="userSpaceOnUse" y1="38.508" x2="31.811" y2="38.508"><stop offset="0" stop-color="#F4AE24"/><stop offset=".65" stop-color="#F6EC44"/></linearGradient><path class="st1" d="M.2 36.3L31.8 50 .5 27c-.3 2-.5 4-.5 6.1 0 1.1.1 2.2.2 3.2z"/><linearGradient id="SVGID_2_" gradientUnits="userSpaceOnUse" x1=".549" y1="35.183" x2="31.811" y2="35.183"><stop offset=".323" stop-color="#F4EC45"/><stop offset="1" stop-color="#F6C72B"/></linearGradient><path class="st2" d="M31.8 50v-2.1L2.5 20.4C1.6 22.5 1 24.7.5 27l31.3 23z"/><linearGradient id="SVGID_3_" gradientUnits="userSpaceOnUse" x1="2.494" y1="31.854" x2="31.811" y2="31.854"><stop offset="0" stop-color="#F7D431"/><stop offset=".393" stop-color="#F1EC6F"/></linearGradient><path class="st3" d="M31.8 47.9v-2.4l-27-29.7c-.9 1.4-1.6 3-2.3 4.6l29.3 27.5z"/><linearGradient id="SVGID_4_" gradientUnits="userSpaceOnUse" x1="7.62" y1="11.06" x2="28.574" y2="47.354"><stop offset="0" stop-color="#F2B824"/><stop offset=".393" stop-color="#F8D731"/></linearGradient><path class="st4" d="M31.8 43.3L9 10.3c-1.6 1.7-3 3.5-4.2 5.5l27 29.7v-2.2z"/><linearGradient id="SVGID_5_" gradientUnits="userSpaceOnUse" x1="12.169" y1="6.808" x2="32.887" y2="42.693"><stop offset="0" stop-color="#F7CC2E"/><stop offset=".393" stop-color="#F4EB40"/></linearGradient><path class="st5" d="M31.8 41.9L16.1 4.6c-2.6 1.6-5 3.5-7.1 5.7l22.8 33v-1.4z"/><linearGradient id="SVGID_6_" gradientUnits="userSpaceOnUse" x1="23.944" y1=".342" x2="23.944" y2="41.88"><stop offset="0" stop-color="#F5DF2F"/><stop offset=".582" stop-color="#F5EF84"/></linearGradient><path class="st6" d="M31.8 41.4L27.9.3c-4.3.7-8.3 2.1-11.8 4.3l15.7 37.3v-.5z"/><linearGradient id="SVGID_7_" gradientUnits="userSpaceOnUse" x1="36.734" x2="36.734" y2="41.423"><stop offset="0" stop-color="#F3BB23"/><stop offset=".582" stop-color="#F4EC42"/></linearGradient><path class="st7" d="M45.6 2.8C41.6 1 37.2 0 32.6 0c-1.6 0-3.2.1-4.7.3l3.9 41.1L45.6 2.8z"/><linearGradient id="SVGID_8_" gradientUnits="userSpaceOnUse" x1="27.726" y1="43.114" x2="49.758" y2="4.953"><stop offset=".465" stop-color="#F4ED5F"/><stop offset=".921" stop-color="#F6D833"/></linearGradient><path class="st8" d="M31.8 45.5L53.5 7.7c-2.4-2-5-3.7-7.9-5L31.8 41.4v4.1z"/><linearGradient id="SVGID_9_" gradientUnits="userSpaceOnUse" x1="25.824" y1="37.513" x2="61.118" y2="17.137"><stop offset="0" stop-color="#FAF8D2"/><stop offset="1" stop-color="#F1EC64"/></linearGradient><path class="st9" d="M31.8 47.9L61.5 18c-2-3.9-4.8-7.4-8.1-10.3L31.8 45.5v2.4z"/><linearGradient id="SVGID_10_" gradientUnits="userSpaceOnUse" x1="31.811" y1="33.991" x2="64.391" y2="33.991"><stop offset=".323" stop-color="#F4EC45"/><stop offset="1" stop-color="#F6C72B"/></linearGradient><path class="st10" d="M31.8 50l32.6-24c-.6-2.8-1.6-5.5-2.8-8.1l-29.8 30V50z"/><linearGradient id="SVGID_11_" gradientUnits="userSpaceOnUse" x1="31.811" y1="38.023" x2="65.133" y2="38.023"><stop offset="0" stop-color="#F6EC44"/><stop offset=".947" stop-color="#F4AE24"/></linearGradient><path class="st11" d="M65 35.6c.1-.8.1-1.7.1-2.6 0-2.4-.3-4.8-.7-7L31.8 50 65 35.6z"/><radialGradient id="SVGID_12_" cx="31.845" cy="35.403" r="15.528" gradientUnits="userSpaceOnUse"><stop offset=".007" stop-color="#FFF"/><stop offset=".535" stop-color="#FFF" stop-opacity=".7"/><stop offset=".755" stop-color="#FFF" stop-opacity=".5"/><stop offset="1" stop-color="#FFF" stop-opacity=".2"/></radialGradient><path class="st12" d="M31.8 50l16-6.9c.2-1.3.4-2.6.4-3.9 0-10.1-7.3-18.4-16.4-18.4S15.4 29 15.4 39.2c0 1.3.1 2.6.4 3.9l16 6.9z"/><g><path class="st13" d="M31.8 15.9l20.3 8.7-20.3 8.8-20.2-8.8z"/><path class="st14" d="M31.8 35.3l-16-7-4.2 1.9 20.2 8.7 20.3-8.7-4.2-1.9z"/><path class="st15" d="M31.8 40.8l-16-6.9-4.2 1.8 20.2 8.8 20.3-8.8-4.2-1.8z"/><path class="st16" d="M31.8 46.4l-16-7-4.2 1.8L31.8 50l20.3-8.8-4.2-1.8z"/></g></g></svg>
